<?xml version="1.0" encoding="utf-8"?>
<svg xmlns="http://www.w3.org/2000/svg" viewBox="63.5293 134.2517 382.1138 226.7298" width="382.114px" height="226.73px" preserveAspectRatio="none"><path id="path0" d="M 87.968 117.372 C 66.213 120.804 56.357 126.356 56.357 135.177 C 56.357 144.425 67.533 150.356 88.206 152.081 C 106.265 153.588 105.236 152.252 105.01 173.868 C 104.81 192.991 105.045 192.585 93.647 193.575 C 69.609 195.659 56.301 203.434 56.333 215.367 C 56.36 224.603 63.778 231.062 79.176 235.255 C 86.099 237.143 88.647 237.477 109.382 239.221 C 152.313 242.834 159.132 244.161 157.007 248.487 C 155.884 250.774 146.455 253.369 126.513 256.874 C 93.612 262.66 85.574 264.188 82.994 265.157 C 74.032 268.518 69.528 275.034 64.89 291.36 C 63.673 295.639 61.307 303.857 59.633 309.622 C 55.094 325.235 54.875 328.304 57.868 334.299 C 61.046 340.662 65.971 343.145 75.942 343.41 C 94.118 343.893 100.18 338.787 103.707 320.027 C 105.666 309.614 106.626 307.932 111.48 306.395 C 114.3 305.503 131.997 301.276 152.686 296.556 C 177.489 290.895 177.005 290.974 185.937 291.194 C 197.667 291.486 197.811 291.631 198.416 303.81 C 199.606 327.778 202.169 334.237 211.175 335.962 C 213.214 336.353 217.35 337.736 220.367 339.038 C 229.861 343.131 230.499 343.232 246.67 343.232 C 262.148 343.232 264.707 342.949 272.292 340.405 C 274.836 339.551 278.715 338.511 280.913 338.092 C 288.834 336.584 290.148 334.762 292.36 322.224 C 292.788 319.799 293.784 314.78 294.573 311.071 C 295.361 307.362 296.303 302.493 296.666 300.251 C 297.581 294.579 298.45 293.138 301.652 291.962 C 306.129 290.319 314.216 290.573 322.333 292.611 C 325.998 293.532 337.24 296.124 347.317 298.37 C 391.182 308.154 387.402 306.342 389.65 318.644 C 393.326 338.76 397.879 343.238 414.652 343.224 C 427.225 343.216 430.992 341.675 435.445 334.726 C 439.347 328.639 439.127 326.497 432.225 303.34 C 421.825 268.456 419.805 265.982 398.948 262.589 C 395.284 261.992 389.181 260.93 385.386 260.227 C 381.591 259.524 373.775 258.114 368.017 257.094 C 344.507 252.93 337.323 250.685 337.323 247.501 C 337.323 244.348 350.04 242.007 380.866 239.49 C 418.174 236.442 431.246 232.117 436.149 221.194 C 442.616 206.785 427.51 195.268 399.303 193.106 C 389.311 192.34 389.431 192.591 389.431 172.55 C 389.431 152.853 389.155 153.388 399.743 152.558 C 428.605 150.297 441.395 142.612 436.368 130.551 C 432.392 121.009 402.046 113.554 386.757 118.363 C 380.681 120.272 379.774 120.281 374.823 118.495 C 360.109 113.182 329.059 120.5 324.441 130.37 C 318.768 142.491 332.005 150.19 362.621 152.575 C 373.146 153.396 373.193 153.474 373.407 170.273 C 373.693 192.645 373.312 193.404 361.355 194.341 C 359.261 194.503 349.732 195.354 340.179 196.226 C 320.25 198.048 319.641 198.013 311.626 194.583 C 273.608 178.315 269.616 177.24 247.146 177.24 C 224.63 177.241 223.46 177.52 193.611 189.945 C 171.553 199.129 175.79 198.496 151.826 196.182 C 143.009 195.332 133.524 194.422 130.751 194.163 C 121.035 193.252 121.041 193.266 121.041 173.091 C 121.041 152.443 120.459 153.397 133.708 152.287 C 161.955 149.921 174.938 141.734 169.358 129.813 C 165.029 120.562 133.638 113.362 119.613 118.404 C 115.367 119.929 111.532 119.911 107.717 118.345 C 104.448 117.007 93.657 116.474 87.968 117.372 M 266.716 196.079 C 268.843 196.675 277.302 199.774 285.513 202.964 C 310.154 212.535 309.24 211.581 309.245 227.712 C 309.247 237.627 308.919 239.124 306.5 240.216 C 304.601 241.075 191.203 241.424 188.841 240.581 C 185.692 239.455 185.267 237.743 185.402 226.786 C 185.595 211.265 184.462 212.506 206.46 203.701 C 229.239 194.582 228.943 194.643 248.574 194.846 C 261.235 194.977 263.288 195.116 266.716 196.079 M 131.034 211.721 C 148.67 213.322 162.22 214.818 164.138 215.378 C 169.004 216.799 170.34 224.268 166.161 226.695 C 164.64 227.576 161.761 227.445 151.575 226.028 C 140.527 224.494 130.567 223.482 112.951 222.108 C 90.316 220.343 81.73 218.514 81.789 215.475 C 81.885 210.618 101.987 209.085 131.034 211.721 M 406.322 211.439 C 409.96 212.455 411.559 213.475 411.559 214.78 C 411.559 218.183 403.713 220.226 384.435 221.847 C 379.069 222.298 370.503 223.023 365.399 223.457 C 360.296 223.894 351.038 224.935 344.827 225.773 C 327.567 228.103 325.719 227.711 325.719 221.723 C 325.719 214.669 325.582 214.702 372.537 210.734 C 381.55 209.974 402.648 210.413 406.322 211.439 M 252.078 257.394 C 270.936 259.559 280.398 271.677 279.612 292.657 C 278.684 317.415 270.383 325.572 246.195 325.484 C 222.736 325.399 215.263 317.093 215.263 291.101 C 215.263 269.941 223.333 259.827 242.149 257.4 C 246.588 256.827 247.139 256.827 252.078 257.394 M 200.526 260.21 C 203.626 261.621 202.016 268.795 198.599 268.795 C 194.947 268.795 194.01 260.805 197.525 259.827 C 198.212 259.634 199.901 259.592 200.526 260.21 M 298.778 261.014 C 301.186 263.639 297.86 269.735 294.839 268.235 C 292.439 267.043 291.323 262.829 292.904 260.925 C 294.019 259.582 297.511 259.633 298.778 261.014 M 175.809 265.925 C 178.24 267.662 177.704 271.403 174.835 272.709 C 173.933 273.121 167.242 274.851 159.965 276.554 C 141.364 280.908 102.52 290.428 99.389 291.4 C 93.127 293.344 92.223 294.935 89.15 309.461 C 86.073 323.997 84.766 325.955 78.639 325.201 C 73.613 324.583 72.91 321.389 75.809 312.307 C 76.754 309.346 78.603 302.977 79.917 298.159 C 84.642 280.838 81.194 282.764 120.327 275.584 C 142.655 271.49 149.95 269.992 159.824 267.485 C 172.002 264.393 173.464 264.251 175.809 265.925 M 338.48 268.53 C 355.305 272.487 360.024 273.454 382.633 277.568 C 410.528 282.646 407.98 280.526 415.604 304.986 C 420.913 322.022 420.858 324.168 415.086 325.111 C 409.197 326.073 407.759 324.124 404.687 311.013 C 400.003 291.014 401.748 292.494 376.052 286.748 C 320.103 274.239 317.306 273.411 317.353 269.353 C 317.409 264.282 319.99 264.181 338.48 268.53 M 242.171 268.324 C 232.958 270.293 225.47 280.489 225.507 291.017 C 225.583 314.202 252.129 324.497 265.605 306.57 C 279.063 288.668 263.77 263.71 242.171 268.324 M 252.395 287.484 C 255.486 290.65 254.417 295.908 250.389 297.358 C 244.148 299.602 239.272 290.599 244.71 286.873 C 246.776 285.457 250.722 285.77 252.395 287.484" stroke="none" fill-rule="evenodd" style="fill: rgb(255, 255, 255);" transform="matrix(1, 0, 0, 1, 7.65262508392334, 17.54084396362306)"/></svg>