<?xml version="1.0" encoding="utf-8"?>
<svg xmlns="http://www.w3.org/2000/svg" viewBox="0 0 500 500" xmlns:bx="https://boxy-svg.com" width="500px" height="500px"><defs><bx:grid x="0.605" y="0.852" width="100" height="100"/><bx:export><bx:file format="svg"/></bx:export></defs><path id="path0" d="M 37.247 33.088 C 37.247 33.088 30.535 35.546 28.524 36.982 C 26.523 38.413 25.248 39.785 23.799 42.095 C 20.769 46.927 19.093 52.989 18.61 62.167 C 18.327 67.031 17.851 74.553 17.582 78.898 C 17.314 83.226 16.854 91.369 16.572 96.998 C 15.899 110.353 9.215 192.145 6.476 220.373 C 4.757 237.904 4.623 239.823 7.082 244.607 C 10.195 252.249 14.76 255.5 21.033 256.824 C 27.35 258.157 33.214 256.956 39.672 251.228 C 41.5 249.969 42.736 247.725 46.025 246.314 C 48.557 245.228 52.241 245.015 58.339 244.998 C 110.911 245.168 154.145 226.081 182.547 190.228 C 188.562 182.805 202.198 159.912 205.168 152.26 C 210.22 139.463 216.572 119.367 218.2 111.029 C 220.948 98.155 223.399 94.582 231.716 89.625 C 238.999 86.179 242.15 80.791 243.284 73.867 C 244.414 66.962 243.199 61.032 237.416 55.678 C 233.277 51.372 233.428 51.261 228.096 50.2 C 220.996 48.788 207.788 47.711 179.528 45.271 C 116.629 39.846 99.471 38.36 90.973 37.61 C 44.869 33.527 38.833 33.044 35.05 34.095 M 86.411 80.092 C 131.463 83.968 153.933 85.897 165.285 87.183 C 171.082 87.839 174.537 88.418 176.473 89.031 C 180.4 90.271 182.199 93.744 182.412 94.209 C 183.122 96.629 182.654 100.611 181.445 103.195 C 178.998 105.147 176.469 106.428 162.436 108.949 C 129.987 114.526 112.149 126.031 90.148 155.466 C 81.958 166.207 77.858 174.55 72.161 191.93 C 70.44 197.145 68.36 202.615 67.621 203.922 C 65.556 206.479 61.499 209.164 58.666 209.06 C 55.718 208.952 51.808 205.57 50.094 202.617 C 50.249 202.748 49.43 201.692 49.141 199.346 C 48.998 198.191 49.002 196.364 49.155 193.681 C 49.446 188.592 50.294 178.378 52.054 156.721 C 54.959 121.012 56.286 104.431 57.063 96.476 C 57.463 92.391 57.782 90.098 58.112 88.791 C 58.967 85.399 60.669 84.694 59.665 85.357 C 61.112 83.059 64.294 79.79 69.129 79.294 C 72.423 78.957 85.238 80.101 85.238 80.101 M 166.033 132.391 C 168.093 133.873 170.623 136.859 171.036 139.075 C 171.371 140.877 171.147 143.517 170.68 145.397 C 169.847 148.748 167.797 153.186 165.297 157.366 C 160.419 165.523 152.347 175.442 143.97 182.8 C 132.229 192.913 111.714 203.208 104.724 202.427 C 102.339 201.572 99.15 199.425 98.051 197.295 C 97.06 195.375 96.639 192.238 96.818 190.074 C 97.131 186.315 98.936 181.19 101.376 176.459 C 106.099 167.306 114.8 155.872 124.633 146.91 C 132.648 139.779 137.101 137.281 147.483 134.112 C 157.89 131.053 161.586 132.059 161.586 132.059 M 171.528 246.281 C 171.528 246.281 165.871 248.283 163.913 249.417 C 161.969 250.546 160.556 251.652 158.963 253.293 C 155.727 256.624 153.484 260.398 151.693 266.09 L 150.814 268.772 L 150.557 320.677 C 150.418 348.545 150.363 362.297 150.034 369.374 C 149.86 373.111 149.517 375.786 148.994 377.435 C 148.081 380.307 146.193 381.875 145.825 382.242 C 142.339 384.826 138.153 386.101 120.918 387.829 C 93.937 390.508 47.247 398.806 21.282 405.543 C 10.142 408.429 -0.486 411.015 -2.259 411.274 L -4.904 411.635 L 0.67 410.876 L 0.67 405.103 L 0.67 437.975 C 0.67 446.995 0.714 455.173 0.785 461.11 C 0.82 464.071 0.86 466.432 0.906 468.067 C 0.927 468.869 0.948 469.421 0.968 469.798 C 0.978 469.955 0.976 469.936 0.974 469.925 C 0.967 469.859 0.92 469.541 0.873 469.333 C 0.826 469.122 0.638 468.487 0.464 468.097 C 0.308 467.747 -0.215 466.867 -0.628 466.401 C -1.326 465.617 -3.821 464.258 -5.361 464.258 C -5.911 464.258 -5.85 464.244 -5.008 463.982 C 16.618 457.389 53.326 448.894 79.689 444.383 C 96.329 441.541 104.56 440.133 110.323 439.269 C 116.186 438.389 119.574 438.066 126.328 437.4 C 155.258 434.558 169.202 433.166 182.1 432.315 C 195.018 431.462 206.879 431.152 231.604 430.455 C 264.11 429.541 316.359 430.959 343.363 433.485 C 363.204 435.346 387.986 437.809 393.817 438.5 C 415.891 441.119 458.681 449.311 482.88 455.546 C 496.234 458.99 506.829 461.622 506.601 461.622 C 506.178 461.622 503.566 462.196 502.339 463.472 C 501.675 464.163 500.962 465.705 500.875 466.102 C 500.905 465.961 500.941 465.483 500.99 463.551 C 501.094 459.441 501.069 451.415 501.006 435.726 L 500.874 403.213 L 500.896 408.658 L 506.108 409.662 L 502.771 409.02 C 500.775 408.631 492.113 406.491 483.563 404.277 C 461.191 398.466 412.942 390.185 386.052 387.542 C 360.017 384.95 357.246 383.191 353.201 377.95 C 351.961 374.853 351.489 369.619 351.244 320.68 C 350.986 268.382 351.155 269.392 350.188 266.904 C 347.148 256.53 338.609 248.224 329.399 246.723 C 323.778 245.44 174.295 245.653 169.994 246.919 M 295.929 297.612 C 297.807 298.672 301.405 301.443 302.215 306.824 C 302.73 310.237 302.743 316.027 302.743 326.441 C 302.743 336.857 302.73 342.647 302.215 346.059 C 301.405 351.441 297.81 354.21 295.931 355.27 C 292.914 356.541 288.522 357.009 250.899 357.009 C 228.48 357.009 217.6 357.058 212.066 356.614 C 208.908 356.362 206.014 355.618 204.366 354.514 C 201.942 352.89 201.026 350.43 200.75 350.014 C 198.979 345.842 198.976 307.044 200.746 302.876 C 201.175 302.083 202.48 299.543 205.029 298.094 C 206.75 297.115 209.642 296.454 212.975 296.196 C 218.986 295.727 230.44 295.765 253.221 295.806 C 288.564 295.87 292.865 296.806 292.865 296.806" stroke="none" fill="#f9f9f9" fill-rule="evenodd" style=""/></svg>